<?xml version="1.0" standalone="no"?>
<!DOCTYPE svg PUBLIC "-//W3C//DTD SVG 20010904//EN"
 "http://www.w3.org/TR/2001/REC-SVG-20010904/DTD/svg10.dtd">
<svg version="1.0" xmlns="http://www.w3.org/2000/svg"
 width="300.000000pt" height="300.000000pt" viewBox="0 0 300.000000 300.000000"
 preserveAspectRatio="xMidYMid meet">
<metadata>
Created by potrace 1.10, written by Peter Selinger 2001-2011
</metadata>
<g transform="translate(0.000000,300.000000) scale(0.100000,-0.100000)"
fill="#26c0ab" stroke="none">
<path d="M1246 2750 c-435 -49 -817 -291 -1029 -652 -430 -729 -77 -1651 736
-1923 334 -112 727 -85 1039 71 246 123 467 337 591 572 170 325 197 702 76
1049 -155 442 -564 787 -1029 867 -114 19 -287 26 -384 16z m668 -775 c176
-355 316 -648 312 -652 -3 -4 -35 -2 -69 4 -146 26 -249 89 -318 196 -22 34
-86 153 -142 264 -56 112 -105 203 -110 203 -10 0 -262 -508 -256 -515 3 -2
88 20 188 51 101 30 185 53 187 51 2 -2 -168 -199 -378 -438 -209 -238 -441
-505 -516 -592 -74 -86 -137 -155 -139 -153 -3 2 70 153 161 335 92 182 163
331 158 331 -4 0 -125 -40 -270 -90 -144 -49 -262 -85 -262 -80 0 6 40 70 88
143 94 140 438 669 785 1207 236 365 246 380 255 380 4 0 151 -290 326 -645z"/>
</g>
</svg>
